<mxfile host="app.diagrams.net" modified="2024-05-21T06:48:04.974Z" agent="Mozilla/5.0 (Windows NT 10.0; Win64; x64) AppleWebKit/537.36 (KHTML, like Gecko) Chrome/124.0.0.0 Safari/537.36" etag="IVAne32POcvW007PA6Tg" version="24.4.4" type="device" pages="2">
  <diagram name="Overall Structure" id="5d7acffa-a066-3a61-03fe-96351882024d">
    <mxGraphModel dx="2850" dy="870" grid="1" gridSize="10" guides="0" tooltips="1" connect="1" arrows="1" fold="1" page="1" pageScale="1" pageWidth="1100" pageHeight="850" background="#ffffff" math="0" shadow="0">
      <root>
        <mxCell id="0" />
        <mxCell id="1" parent="0" />
        <mxCell id="JyfbwgpRZlKUO30zpDnX-9" value="" style="edgeStyle=orthogonalEdgeStyle;rounded=0;orthogonalLoop=1;jettySize=auto;html=1;fillColor=#ffe6cc;strokeColor=#d79b00;" edge="1" parent="1" source="JyfbwgpRZlKUO30zpDnX-2" target="JyfbwgpRZlKUO30zpDnX-3">
          <mxGeometry relative="1" as="geometry">
            <Array as="points">
              <mxPoint x="520" y="390" />
              <mxPoint x="520" y="390" />
            </Array>
          </mxGeometry>
        </mxCell>
        <mxCell id="JyfbwgpRZlKUO30zpDnX-8" value="" style="edgeStyle=orthogonalEdgeStyle;rounded=0;orthogonalLoop=1;jettySize=auto;html=1;fillColor=#d5e8d4;strokeColor=#82b366;" edge="1" parent="1" source="JyfbwgpRZlKUO30zpDnX-3" target="JyfbwgpRZlKUO30zpDnX-2">
          <mxGeometry relative="1" as="geometry">
            <Array as="points">
              <mxPoint x="510" y="660" />
              <mxPoint x="510" y="660" />
            </Array>
          </mxGeometry>
        </mxCell>
        <mxCell id="JyfbwgpRZlKUO30zpDnX-11" value="" style="edgeStyle=orthogonalEdgeStyle;rounded=0;orthogonalLoop=1;jettySize=auto;html=1;fillColor=#ffe6cc;strokeColor=#d79b00;" edge="1" parent="1" source="JyfbwgpRZlKUO30zpDnX-3" target="JyfbwgpRZlKUO30zpDnX-4">
          <mxGeometry relative="1" as="geometry">
            <Array as="points">
              <mxPoint x="770" y="390" />
              <mxPoint x="770" y="390" />
            </Array>
          </mxGeometry>
        </mxCell>
        <mxCell id="JyfbwgpRZlKUO30zpDnX-7" value="" style="edgeStyle=orthogonalEdgeStyle;rounded=0;orthogonalLoop=1;jettySize=auto;html=1;fillColor=#d5e8d4;strokeColor=#82b366;" edge="1" parent="1" source="JyfbwgpRZlKUO30zpDnX-4" target="JyfbwgpRZlKUO30zpDnX-3">
          <mxGeometry relative="1" as="geometry">
            <Array as="points">
              <mxPoint x="820" y="660" />
              <mxPoint x="820" y="660" />
            </Array>
          </mxGeometry>
        </mxCell>
        <mxCell id="JyfbwgpRZlKUO30zpDnX-13" value="" style="edgeStyle=orthogonalEdgeStyle;rounded=0;orthogonalLoop=1;jettySize=auto;html=1;fillColor=#ffe6cc;strokeColor=#d79b00;" edge="1" parent="1" source="JyfbwgpRZlKUO30zpDnX-4" target="JyfbwgpRZlKUO30zpDnX-5">
          <mxGeometry relative="1" as="geometry">
            <Array as="points">
              <mxPoint x="1200" y="390" />
            </Array>
          </mxGeometry>
        </mxCell>
        <mxCell id="JyfbwgpRZlKUO30zpDnX-6" value="" style="edgeStyle=orthogonalEdgeStyle;rounded=0;orthogonalLoop=1;jettySize=auto;html=1;fillColor=#d5e8d4;strokeColor=#82b366;" edge="1" parent="1" source="JyfbwgpRZlKUO30zpDnX-5" target="JyfbwgpRZlKUO30zpDnX-4">
          <mxGeometry relative="1" as="geometry">
            <Array as="points">
              <mxPoint x="1200" y="660" />
            </Array>
          </mxGeometry>
        </mxCell>
        <mxCell id="JyfbwgpRZlKUO30zpDnX-5" value="Database" style="ellipse;whiteSpace=wrap;html=1;aspect=fixed;fillColor=#dae8fc;strokeColor=#6c8ebf;" vertex="1" parent="1">
          <mxGeometry x="1130" y="460" width="140" height="140" as="geometry" />
        </mxCell>
        <mxCell id="JyfbwgpRZlKUO30zpDnX-14" value="" style="shape=flexArrow;endArrow=classic;html=1;rounded=0;endWidth=51;endSize=13.4;entryX=1;entryY=1;entryDx=0;entryDy=0;entryPerimeter=0;fillColor=#d5e8d4;strokeColor=#82b366;" edge="1" parent="1" target="JyfbwgpRZlKUO30zpDnX-18">
          <mxGeometry width="50" height="50" relative="1" as="geometry">
            <mxPoint x="280" y="660" as="sourcePoint" />
            <mxPoint x="100" y="660" as="targetPoint" />
          </mxGeometry>
        </mxCell>
        <mxCell id="JyfbwgpRZlKUO30zpDnX-15" value="Business Model response" style="edgeLabel;html=1;align=center;verticalAlign=middle;resizable=0;points=[];" vertex="1" connectable="0" parent="JyfbwgpRZlKUO30zpDnX-14">
          <mxGeometry x="-0.1771" relative="1" as="geometry">
            <mxPoint as="offset" />
          </mxGeometry>
        </mxCell>
        <mxCell id="JyfbwgpRZlKUO30zpDnX-16" value="" style="shape=flexArrow;endArrow=classic;html=1;rounded=0;endWidth=51;endSize=13.4;exitX=0;exitY=0;exitDx=120;exitDy=20;exitPerimeter=0;fillColor=#ffe6cc;strokeColor=#d79b00;" edge="1" parent="1" source="JyfbwgpRZlKUO30zpDnX-18">
          <mxGeometry width="50" height="50" relative="1" as="geometry">
            <mxPoint x="110" y="390" as="sourcePoint" />
            <mxPoint x="280" y="390" as="targetPoint" />
          </mxGeometry>
        </mxCell>
        <mxCell id="JyfbwgpRZlKUO30zpDnX-17" value="Request Payload" style="edgeLabel;html=1;align=center;verticalAlign=middle;resizable=0;points=[];" vertex="1" connectable="0" parent="JyfbwgpRZlKUO30zpDnX-16">
          <mxGeometry x="-0.1771" relative="1" as="geometry">
            <mxPoint as="offset" />
          </mxGeometry>
        </mxCell>
        <mxCell id="JyfbwgpRZlKUO30zpDnX-18" value="External Application" style="shape=cube;whiteSpace=wrap;html=1;boundedLbl=1;backgroundOutline=1;darkOpacity=0.05;darkOpacity2=0.1;fillColor=#dae8fc;strokeColor=#6c8ebf;" vertex="1" parent="1">
          <mxGeometry x="-80" y="480" width="120" height="80" as="geometry" />
        </mxCell>
        <mxCell id="JyfbwgpRZlKUO30zpDnX-26" value="" style="group" vertex="1" connectable="0" parent="1">
          <mxGeometry x="280" y="320" width="180" height="400" as="geometry" />
        </mxCell>
        <mxCell id="JyfbwgpRZlKUO30zpDnX-2" value="Clients" style="rounded=1;whiteSpace=wrap;html=1;" vertex="1" parent="JyfbwgpRZlKUO30zpDnX-26">
          <mxGeometry width="180" height="400" as="geometry" />
        </mxCell>
        <mxCell id="JyfbwgpRZlKUO30zpDnX-19" value="Request is forwarded from the client to the respective Service." style="rounded=0;whiteSpace=wrap;html=1;align=left;fillColor=#ffe6cc;strokeColor=#d79b00;" vertex="1" parent="JyfbwgpRZlKUO30zpDnX-26">
          <mxGeometry y="45" width="180" height="60" as="geometry" />
        </mxCell>
        <mxCell id="JyfbwgpRZlKUO30zpDnX-24" value="Business Object response is sent back to the External Application." style="rounded=0;whiteSpace=wrap;html=1;align=left;fillColor=#d5e8d4;strokeColor=#82b366;" vertex="1" parent="JyfbwgpRZlKUO30zpDnX-26">
          <mxGeometry y="310" width="180" height="60" as="geometry" />
        </mxCell>
        <mxCell id="JyfbwgpRZlKUO30zpDnX-27" value="" style="group" vertex="1" connectable="0" parent="1">
          <mxGeometry x="590" y="320" width="170" height="400" as="geometry" />
        </mxCell>
        <mxCell id="JyfbwgpRZlKUO30zpDnX-3" value="Services" style="rounded=1;whiteSpace=wrap;html=1;" vertex="1" parent="JyfbwgpRZlKUO30zpDnX-27">
          <mxGeometry width="170" height="400" as="geometry" />
        </mxCell>
        <mxCell id="JyfbwgpRZlKUO30zpDnX-20" value="Request is forwarded from the Service to the respective Repository." style="rounded=0;whiteSpace=wrap;html=1;align=left;fillColor=#ffe6cc;strokeColor=#d79b00;" vertex="1" parent="JyfbwgpRZlKUO30zpDnX-27">
          <mxGeometry y="40" width="170" height="60" as="geometry" />
        </mxCell>
        <mxCell id="JyfbwgpRZlKUO30zpDnX-23" value="The Data Model is mapped/transformed into a Business Object." style="rounded=0;whiteSpace=wrap;html=1;align=left;fillColor=#d5e8d4;strokeColor=#82b366;" vertex="1" parent="JyfbwgpRZlKUO30zpDnX-27">
          <mxGeometry y="310" width="170" height="60" as="geometry" />
        </mxCell>
        <mxCell id="JyfbwgpRZlKUO30zpDnX-28" value="" style="group" vertex="1" connectable="0" parent="1">
          <mxGeometry x="880" y="320" width="170" height="400" as="geometry" />
        </mxCell>
        <mxCell id="JyfbwgpRZlKUO30zpDnX-4" value="Repositories" style="rounded=1;whiteSpace=wrap;html=1;" vertex="1" parent="JyfbwgpRZlKUO30zpDnX-28">
          <mxGeometry width="170" height="400" as="geometry" />
        </mxCell>
        <mxCell id="JyfbwgpRZlKUO30zpDnX-21" value="Repository calls the database to perform the requested operation." style="rounded=0;whiteSpace=wrap;html=1;align=left;fillColor=#ffe6cc;strokeColor=#d79b00;" vertex="1" parent="JyfbwgpRZlKUO30zpDnX-28">
          <mxGeometry y="40" width="170" height="60" as="geometry" />
        </mxCell>
        <mxCell id="JyfbwgpRZlKUO30zpDnX-22" value="Database returns some data in the form of a Data Model." style="rounded=0;whiteSpace=wrap;html=1;align=left;fillColor=#d5e8d4;strokeColor=#82b366;" vertex="1" parent="JyfbwgpRZlKUO30zpDnX-28">
          <mxGeometry y="310" width="170" height="60" as="geometry" />
        </mxCell>
      </root>
    </mxGraphModel>
  </diagram>
  <diagram id="tZJpeK5RCj_muB2ToC5o" name="Project References">
    <mxGraphModel dx="2465" dy="803" grid="1" gridSize="10" guides="1" tooltips="1" connect="1" arrows="1" fold="1" page="1" pageScale="1" pageWidth="850" pageHeight="1100" math="0" shadow="0">
      <root>
        <mxCell id="0" />
        <mxCell id="1" parent="0" />
        <mxCell id="gAvpOzSfaihNDRKQY6ud-2" value="UI Project" style="swimlane;fontStyle=0;childLayout=stackLayout;horizontal=1;startSize=26;horizontalStack=0;resizeParent=1;resizeParentMax=0;resizeLast=0;collapsible=1;marginBottom=0;align=center;fontSize=14;" vertex="1" parent="1">
          <mxGeometry x="-800" y="400" width="160" height="110" as="geometry" />
        </mxCell>
        <mxCell id="gAvpOzSfaihNDRKQY6ud-3" value="Depends on the clients for data manipulation." style="text;strokeColor=none;fillColor=none;spacingLeft=4;spacingRight=4;overflow=hidden;rotatable=0;points=[[0,0.5],[1,0.5]];portConstraint=eastwest;fontSize=12;whiteSpace=wrap;html=1;" vertex="1" parent="gAvpOzSfaihNDRKQY6ud-2">
          <mxGeometry y="26" width="160" height="44" as="geometry" />
        </mxCell>
        <mxCell id="gAvpOzSfaihNDRKQY6ud-6" value="Has no concept of the Data Models, only View Models." style="text;strokeColor=none;fillColor=none;spacingLeft=4;spacingRight=4;overflow=hidden;rotatable=0;points=[[0,0.5],[1,0.5]];portConstraint=eastwest;fontSize=12;whiteSpace=wrap;html=1;" vertex="1" parent="gAvpOzSfaihNDRKQY6ud-2">
          <mxGeometry y="70" width="160" height="40" as="geometry" />
        </mxCell>
        <mxCell id="gAvpOzSfaihNDRKQY6ud-7" value="UI Project" style="swimlane;fontStyle=0;childLayout=stackLayout;horizontal=1;startSize=26;horizontalStack=0;resizeParent=1;resizeParentMax=0;resizeLast=0;collapsible=1;marginBottom=0;align=center;fontSize=14;" vertex="1" parent="1">
          <mxGeometry x="-280" y="120" width="160" height="110" as="geometry" />
        </mxCell>
        <mxCell id="gAvpOzSfaihNDRKQY6ud-8" value="Depends on the clients for data manipulation." style="text;strokeColor=none;fillColor=none;spacingLeft=4;spacingRight=4;overflow=hidden;rotatable=0;points=[[0,0.5],[1,0.5]];portConstraint=eastwest;fontSize=12;whiteSpace=wrap;html=1;" vertex="1" parent="gAvpOzSfaihNDRKQY6ud-7">
          <mxGeometry y="26" width="160" height="44" as="geometry" />
        </mxCell>
        <mxCell id="gAvpOzSfaihNDRKQY6ud-9" value="Has no concept of the Data Models, only View Models." style="text;strokeColor=none;fillColor=none;spacingLeft=4;spacingRight=4;overflow=hidden;rotatable=0;points=[[0,0.5],[1,0.5]];portConstraint=eastwest;fontSize=12;whiteSpace=wrap;html=1;" vertex="1" parent="gAvpOzSfaihNDRKQY6ud-7">
          <mxGeometry y="70" width="160" height="40" as="geometry" />
        </mxCell>
      </root>
    </mxGraphModel>
  </diagram>
</mxfile>
